<svg xmlns="http://www.w3.org/2000/svg" viewBox="0 0 534.37 220.94"><defs><style>.cls-1{fill:#fff;}</style></defs><title>Asset 1</title><g id="Layer_2" data-name="Layer 2"><g id="Layer_1-2" data-name="Layer 1"><path class="cls-1" d="M288.63,165.18c-7.14-2-13.92.8-16.95,7.58-3.86,8.64-8.83,16.66-13.08,25.08-2.43,4.81-5.07,9.53-7.63,14.31l-1.26-.09c-.08-2.6,0-5.31-2-7.55a3.53,3.53,0,0,1,0-3.36c2.48-3.39-.95-6.45-.24-9.66-1.82-3-.8-5.77.79-8.48.46-.78.8-1.62,1.36-2.76l-4.26-.19a40.22,40.22,0,0,0,1.21-5.66,39.73,39.73,0,0,0-.56-6c.78-2.11,1.88-5.15,3-8.17s3.13-5.28,3.7-8.5c.33-1.87,2-3.45,2.85-5.29,9.49-21.47,20.59-42.14,31-63.14,5-10.09,10.35-20,15.4-30.13,2.41-4.82,4.38-9.86,6.78-14.69A168.33,168.33,0,0,1,319.4,20.88a23.12,23.12,0,0,0,1.75-2.77A57.93,57.93,0,0,1,334.29,0l.65,2.3-.54.76c3.52,2.36,1.94,7.27,5,10.46l5-2.29v6.88h5.22c12.67,0,25.33,0,38,0a15.39,15.39,0,0,0,5.66-.75c2.8-1,5.82.37,8.52,2.2l-5.16,3.79c.06,3.63.08,3.59,3.23,4.84a6.75,6.75,0,0,1,1.71,1.42L399,38.29a99.78,99.78,0,0,1-14.26,12.42c-4.49,3.11-8.31,7.2-12.7,10.47-6.06,4.51-12,9.19-18.6,13a69.52,69.52,0,0,0-6.66,4.42,7.89,7.89,0,0,0-2.25,3.17,46.38,46.38,0,0,1,7-.65c8.67.09,17.33,0,26,0,5.35,0,10.74-.49,16,1.44l.18,1.18a5.46,5.46,0,0,1-1.64.34,5.74,5.74,0,0,0-4.35,1.55c-4.45,3.88-8.8,7.88-13,12a7.25,7.25,0,0,0-2,4.12c-.25,2.41-1.48,3.72-3.28,5.13-2.54,2-4.75,4.38-7.36,6.38-4.82,3.7-9.7,7.37-14.29,11.33-8.09,7-17.05,12.67-25.85,18.61-4.65,3.14-9.54,5.93-14.31,8.88a6.66,6.66,0,0,0-1.55,1.07c-3.34,3.78-7.77,5.88-12.12,8.16A47.65,47.65,0,0,0,288.63,165.18Zm-2.27-18.79c3.58-2.64,6.59-4.84,9.59-7.07,3.74-2.79,7.19-6,10.93-8.71,5.35-3.88,10-8.61,15.27-12.49,4-2.95,7.26-6.87,11.51-9.59.55-.35.64-1.43,1.09-2.53a39.44,39.44,0,0,1-4.18,1.12c-2.43.35-4.89-1.09-7-.76a56.76,56.76,0,0,1-7.61.79c-.5,0-1.18.21-1.47,0-2-1.74-4.34-.65-6.11-1-2.39,3.41-4.72,6.4-6.65,9.62s-3.38,6.59-5.07,9.88-3.71,6.79-5.25,10.32C289.91,139.32,287.12,142,286.36,146.39ZM360.58,40.46a13.52,13.52,0,0,1-7.81.34c-.91-.23-2-.89-2.69-.57-3.27,1.56-6.73.61-10.19,1a14.15,14.15,0,0,0-1.24,2c-1,2.4-1.89,4.89-3,7.23-3.06,6.24-6.25,12.41-9.36,18.62a19.85,19.85,0,0,0-.79,2.66L360.58,42.5Z"/><path class="cls-1" d="M5.18,212l-3.51-8.08v-3.21l1.81-1.91a21.8,21.8,0,0,1-1.78-4.35c-.33-1.86-.09-3.73-1-5.62s.3-3.73,1.22-5.4A15.11,15.11,0,0,1,4.24,181L0,179.25a77.66,77.66,0,0,0,.56-8.43,18.74,18.74,0,0,1,2.07-8.67c2.3-5,4.81-10,7-15.12,3.78-9,8.64-17.42,12.74-26.23,2.08-4.47,4.33-8.86,6.39-13.34,3.48-7.57,7.6-14.85,11.37-22.29,3.56-7,7-14.11,10.55-21.12,1.55-3,3.49-5.88,4.94-9,2.29-4.88,4.08-10,6.49-14.8A167.47,167.47,0,0,1,74.42,19.9C76,17.58,77,15,78.51,12.56a83.88,83.88,0,0,1,7.24-10C86.62,1.58,88,1,89.47,0c.36,2.45,0,4.84,1.39,7C92,8.81,92.22,11.1,93,13.58l5.43-2.14,1.44,1.44-1.39,3.88,2.07.9-.45.49h43.48a15.19,15.19,0,0,0,3.63-.81c3-.74,5.95.29,8.52,2.24l-5.42,4.22,1.47,3.9,4,1.61c-.46,2.44-.37,4.72-1.33,6.4-1.41,2.47-2.16,5.36-5.4,6.84-2.5,1.14-4.32,3.78-6.68,5.55-5.66,4.24-10.94,9-16.52,13.33-4.87,3.8-9.83,7.51-15,10.92-3,2-6.11,3.77-9.12,5.75-1.39.91-2.63,1.74-3.22,3.26.36.36.72.79.77.76,1.89-1.26,4-1,6.11-1,10.83,0,21.67.15,32.5-.1,3.16-.07,6,1.06,9.09,1.16.58,0,1.13.92,1.85,1.55-6.9.43-8.91,2.8-11.45,7.27l-2.3.21c-1.43,1.71-3.91,3.09-4.89,5.9-2.14,0-4.31.08-6.46,0-2.93-.13-5.55,1-8.3,1.7-3.34.81-6.51,2.21-10,2.4a20.06,20.06,0,0,0-6.8,1.61c-2.12.93-4.7-.92-6.46,1.31-4.53.33-9.05.77-13.59.93-1.33,0-2.7-.69-4.37-1.15l-1.42,2.17H63.16c-4.37,4.58-7.59,10-10.5,15.58-6,11.51-11.81,23.1-17.72,34.65-3.52,6.88-6.85,13.86-10.65,20.58C18.47,187.16,13,197.56,7.61,208,6.9,209.4,6,210.67,5.18,212ZM116.42,39.85c-4.34,1.33-7.52,2.18-10.75.36a2.61,2.61,0,0,0-2.4,0c-1.25,1.35-2.74.87-4.15.92-1.79.06-3.58,0-6,0,0,4.09-3.43,6.65-3.59,10.58-2.76,2.57-3.12,6.38-4.81,9.51s-4.2,6-4.81,9.83c11.88-9.39,23.43-19,35-28.72A13.35,13.35,0,0,0,116.42,39.85Z"/><path class="cls-1" d="M161.13,220.94l-2.6-6.28a8.76,8.76,0,0,0,.34-6.5c-.92-2.84-.36-6.14,1.35-9.28A191.2,191.2,0,0,0,170.09,178c1.42-3.59,3.33-6.93,4.67-10.57a74.67,74.67,0,0,1,4.56-10.61c1.62-2.93,2.3-6.37,3.67-9.46a38,38,0,0,1,3.88-6.88,48.51,48.51,0,0,0,6.84-14.18c.82-2.62,2.2-5.08,2.93-7.77q1.46-5.38,3-10.75a9.56,9.56,0,0,1,1-2.1C205,98.08,208.58,90,212.22,82a30.59,30.59,0,0,1,7.45-10.4,4.65,4.65,0,0,1,1.2-.57c.28.3.66.59.62.68a4.86,4.86,0,0,1-.87.92c2.67,1.78,1,5.68,3.6,7.68l3.09-1.54.44,4c.25.12.53.38.81.37,5.89-.25,11.66,1.77,17.57,1,1.72-.22,3.54.61,5.16-.92.51-.49,1.95-.21,2.89,0,3.44.79,3.43.84,5.77-.12L261,84l3-1.69,4.61,1.94-4.5,3.62,3.36,3.83c1.18,5.5-3.12,8.14-6.32,11.22-2,1.95-4.76,3.15-6.86,5a134.41,134.41,0,0,1-20.65,15.39c-4.35,2.62-8,6.17-12.38,8.65-5,2.82-9.92,5.93-14.67,9.2a20.4,20.4,0,0,0-6,5.7c-5.56,9.11-10.4,18.62-15.13,28.19-3.49,7.07-7.27,14-11,20.94-2.62,4.92-5.33,9.79-8,14.68C164.79,214.12,163,217.53,161.13,220.94Zm53.3-100.88c1,.05,1.41.22,1.6.07q6-4.87,11.91-9.8c3.57-3,6.94-6.21,10.8-8.85.52-.36.69-1.22,1.18-2.14H224.6Z"/><path class="cls-1" d="M442.1,105.11c-.1-4-3.21-6.07-5.61-8.6l-7.35-1.38c-2.21,2.65,1.81,3.49,1.41,6-1.05,0-2.16.08-3.26,0-4.43-.38-8.23,1.61-12.29,2.88-5.35,1.67-9.08,4.89-12.44,9.13a41.16,41.16,0,0,0-6.91,13.15,49.59,49.59,0,0,0-1.18,5.26c2.84,7.37,7,12.77,13.61,15.53,7.3,3,5.18,4.47,18.34,1.2a37.91,37.91,0,0,0,4.72-3.25,19.53,19.53,0,0,0,3.19-4.15c1.19-2,2-4.17,3.24-6.14s.39-4.43,2-6.16c-.12-4.32.67-8.74-1.78-12.76a40.37,40.37,0,0,1-2-4.29l1.93-.91c-.9-2.95-4.34-4-5.59-7.61,5.38,2.64,9.44,6.14,13.81,8.22l4.63,10.41c4.31,3.16,2.78,7.36,1.67,11.21-.67,2.32-.65,5-2.67,6.88.47,2.56-1.75,4.24-2.2,6.63-.4,2.12-2.37,4-3.82,5.86-4.62,5.9-10.07,10.31-17.75,12.08-6.09,1.4-12.09.32-18.11.85-6.45-2-12.9-3.67-17.81-9-3.19-3.46-6.41-6.9-8.65-11-3.05-5.54-5.68-11.55-4.5-18a61.62,61.62,0,0,1,3.07-10.68c3.3-8.64,7.7-16.64,14.79-22.85A32.48,32.48,0,0,1,407,87.15c5.58-1.67,12.23-2.7,17.14-1.91a30.36,30.36,0,0,1,9.69,3.05,18.6,18.6,0,0,1,6.39,6.11C442.12,97.43,443.3,101,442.1,105.11Z"/><path class="cls-1" d="M461.77,89.52c-.57-2,.71-4.14-1.13-5.87a16.41,16.41,0,0,1,9-4.65c4.57-1,9.16-.18,13.6-1s9.21-.11,13.57-1c6.58-1.4,13.1-.78,19.62-.7,4.94.06,9.67-1.54,14.59-1.14.79.06,1.6,0,3.39,0a24,24,0,0,1-2.78,2,10,10,0,0,0-4.78,4.15c-1.7,2.91-4.21,5.34-6.25,7.82-7.57-.09-14.31,2.23-21.17,4-2.16.56-3,1.78-3.85,3.7-2.51,5.47-5.42,10.76-8.18,16.11-.21.41-.51.79-.73,1.2-4,7.34-7.78,14.82-12.06,22-4.54,7.59-8.57,15.44-12.65,23.27-3.17,6.09-7,11.8-10.65,17.58-.65,1-1.86,1.68-3.39,3-.11-2.19-.11-3.61-.27-5s.64-3-.81-4.18a1.49,1.49,0,0,1-.14-1.39c1.5-2.92,1.08-5.75,0-8.71-.69-1.94.25-3.89,1.39-5.37,3.57-4.64,5.12-10.24,7.44-15.44,2.95-6.6,5.23-13.5,7.54-20.39,1.29-3.85,3.77-7.48,6-11s3.62-7.21,6.13-11c-1.39-.14-2.29-.26-3.19-.31-4.34-.24-8.69-.47-13.28-.72C458.45,93.37,459.72,91.48,461.77,89.52Z"/><path class="cls-1" d="M179.66,138.07c-2.54,5.41-5.11,10.18-6.05,15.61a5.05,5.05,0,0,1-3,4.08c2-4.38,1-7.52-1.94-10.1.63-1.34,0-3.67-1.66-6.48.95-3.63,1.71-6.93,2.68-10.17,1.61-5.38,1.76-11.09,3.87-16.39.66-1.67,0-3.73,1-5.58.69-1.3.67-3,1.05-4.91a8.59,8.59,0,0,0-2.76.37c-4.81,2.53-9.56,5.16-14.17,8.06-3.81,2.39-7.83,4.44-11.68,6.76-6.14,3.71-12.11,7.71-18.35,11.23a170,170,0,0,1-16.24,8l2-3.9-1-1.87a5.68,5.68,0,0,0,3.72-3.48,14.46,14.46,0,0,1,7.81-8.33c2.73-1.26,5.21-3.53,7.74-5.42,4.26-3.18,8.12-6.89,12.33-10.15,3.35-2.59,6.91-4.95,10.5-7.22,7-4.41,14.09-8.64,21.08-13,3.72-2.34,7.35-4.84,10.93-7.39.69-.49.93-1.6,1.46-2.36,1.06-1.53,2.17-3,3.14-4.35,5,1.21,5,1.21,8.47.1-1.44,2.5-.7,5-1,7.79l2.09,1.65a5.36,5.36,0,0,1-.15,1.2C198,90,193.84,97.88,190.43,106.17c-3,7.41-4.86,15.3-8.71,22.39C181.62,132.05,178.53,134.93,179.66,138.07Z"/></g></g></svg>